/* XPM */
static char * LinNeighborhood_xpm[] = {
"24 24 256 2",
"  	c None",
". 	c #000100",
"+ 	c #000200",
"@ 	c #030005",
"# 	c #000306",
"$ 	c #020501",
"% 	c #040702",
"& 	c #050804",
"* 	c #070905",
"= 	c #0B070D",
"- 	c #080B07",
"; 	c #0A0C08",
"> 	c #0D0A0F",
", 	c #0B0D0A",
"' 	c #151100",
") 	c #1A1101",
"! 	c #111310",
"~ 	c #121411",
"{ 	c #000B77",
"] 	c #080778",
"^ 	c #141513",
"/ 	c #000C80",
"( 	c #171816",
"_ 	c #191B18",
": 	c #1C1D1B",
"< 	c #1D1F1C",
"[ 	c #1E1F1D",
"} 	c #2A1F03",
"| 	c #111198",
"1 	c #20211F",
"2 	c #471212",
"3 	c #242226",
"4 	c #1C2434",
"5 	c #242523",
"6 	c #0A19AC",
"7 	c #252724",
"8 	c #142566",
"9 	c #262825",
"0 	c #0324A4",
"a 	c #282927",
"b 	c #362903",
"c 	c #23283E",
"d 	c #392B00",
"e 	c #2A2C29",
"f 	c #0824B4",
"g 	c #2D2E2C",
"h 	c #004D03",
"i 	c #2B2370",
"j 	c #3B3205",
"k 	c #970112",
"l 	c #2F312E",
"m 	c #015006",
"n 	c #AC0001",
"o 	c #134B13",
"p 	c #2E3B26",
"q 	c #343633",
"r 	c #1F2CAD",
"s 	c #A60706",
"t 	c #423B00",
"u 	c #115111",
"v 	c #174E16",
"w 	c #3A3B39",
"x 	c #3C3A3D",
"y 	c #3C3E3B",
"z 	c #513F00",
"A 	c #3D3F3C",
"B 	c #3F403E",
"C 	c #026B03",
"D 	c #394152",
"E 	c #D70000",
"F 	c #D90001",
"G 	c #414240",
"H 	c #961E1B",
"I 	c #574900",
"J 	c #A81C18",
"K 	c #454744",
"L 	c #6E3536",
"M 	c #2B5D31",
"N 	c #654A00",
"O 	c #4A4B49",
"P 	c #29612E",
"Q 	c #4A4B54",
"R 	c #424978",
"S 	c #0E7908",
"T 	c #266920",
"U 	c #774A00",
"V 	c #CF181F",
"W 	c #525451",
"X 	c #386734",
"Y 	c #4C5175",
"Z 	c #535452",
"` 	c #545553",
" .	c #54545D",
"..	c #376C32",
"+.	c #565755",
"@.	c #565855",
"#.	c #755803",
"$.	c #645C29",
"%.	c #0B8D15",
"&.	c #CF2727",
"*.	c #5A5C59",
"=.	c #50654D",
"-.	c #765B21",
";.	c #5C5E5B",
">.	c #5D5F5C",
",.	c #5E605D",
"'.	c #7D6300",
").	c #895E00",
"!.	c #60625F",
"~.	c #5D617A",
"{.	c #626461",
"].	c #876700",
"^.	c #FF2333",
"/.	c #62657F",
"(.	c #4A60E4",
"_.	c #686A67",
":.	c #6B6D6A",
"<.	c #6E6B7A",
"[.	c #6E706D",
"}.	c #6F716E",
"|.	c #717370",
"1.	c #7D764D",
"2.	c #737572",
"3.	c #429648",
"4.	c #977900",
"5.	c #777976",
"6.	c #479B4C",
"7.	c #68856A",
"8.	c #9D7E02",
"9.	c #75799F",
"0.	c #FF4745",
"a.	c #7D7F7C",
"b.	c #7E807D",
"c.	c #7F817E",
"d.	c #51A24D",
"e.	c #818380",
"f.	c #53A44F",
"g.	c #7F8487",
"h.	c #A98803",
"i.	c #39B351",
"j.	c #838582",
"k.	c #7A82AE",
"l.	c #52A94C",
"m.	c #FF5053",
"n.	c #8E8282",
"o.	c #9A8B3C",
"p.	c #5EA564",
"q.	c #888992",
"r.	c #898B88",
"s.	c #8488AF",
"t.	c #B39102",
"u.	c #8D8B8F",
"v.	c #8B8D8A",
"w.	c #B59204",
"x.	c #8489BD",
"y.	c #8082F1",
"z.	c #8D8F8C",
"A.	c #B99500",
"B.	c #62AF66",
"C.	c #FF6165",
"D.	c #B89A00",
"E.	c #919390",
"F.	c #8088FE",
"G.	c #B99B00",
"H.	c #949693",
"I.	c #BE9A15",
"J.	c #969895",
"K.	c #9798A2",
"L.	c #9A989C",
"M.	c #9F9A99",
"N.	c #C4A400",
"O.	c #9B9D99",
"P.	c #9F9DA1",
"Q.	c #9EA09D",
"R.	c #CEA600",
"S.	c #CDAB00",
"T.	c #78C07D",
"U.	c #A2A4A1",
"V.	c #D2AB00",
"W.	c #A3A5A2",
"X.	c #A9A4A3",
"Y.	c #7EC37A",
"Z.	c #999EFF",
"`.	c #C6AE3C",
" +	c #AAA8AC",
".+	c #A5A9B8",
"++	c #ACAEAB",
"@+	c #D2B231",
"#+	c #DFB500",
"$+	c #ABB2A7",
"%+	c #DAB712",
"&+	c #DEBA00",
"*+	c #D0B73C",
"=+	c #B1B3B0",
"-+	c #AEB7B3",
";+	c #B3B5B2",
">+	c #E2BD09",
",+	c #EABF00",
"'+	c #B7B9B6",
")+	c #B9BBB8",
"!+	c #BCBABE",
"~+	c #BABCB9",
"{+	c #BBBDBA",
"]+	c #F2C500",
"^+	c #CAC08D",
"/+	c #BDBFBC",
"(+	c #BEC1BD",
"_+	c #C0C2BE",
":+	c #F7CF00",
"<+	c #C4C6C3",
"[+	c #C9CBC8",
"}+	c #FFD700",
"|+	c #F9D711",
"1+	c #ECD156",
"2+	c #FCD423",
"3+	c #FEDB00",
"4+	c #CED0CC",
"5+	c #CFD1CE",
"6+	c #CDD2D5",
"7+	c #D0D2CF",
"8+	c #D1D3D0",
"9+	c #F5DC3F",
"0+	c #D2D8DA",
"a+	c #FFEE03",
"b+	c #D4D9E9",
"c+	c #DBD8DC",
"d+	c #D6DBDD",
"e+	c #D9DBD7",
"f+	c #FFE635",
"g+	c #D9D9E4",
"h+	c #FFE92B",
"i+	c #DBDDDA",
"j+	c #DCDEDB",
"k+	c #FFEF22",
"l+	c #DFE1DE",
"m+	c #E0E2DF",
"n+	c #DDE3E5",
"o+	c #FCEE75",
"p+	c #FFF35B",
"q+	c #E9E8DF",
"r+	c #E7E9E6",
"s+	c #E8EAE7",
"t+	c #EBEDEA",
"u+	c #FCFA76",
"v+	c #EEF0ED",
"w+	c #FFFE7A",
"x+	c #FFFD8F",
"y+	c #FFFF8A",
"z+	c #F4F6F3",
"A+	c #F6F8F4",
"B+	c #F7F9F6",
"C+	c #F8FAF7",
"D+	c #FAFCF9",
"E+	c #FBFDFA",
"F+	c #FCFFFB",
"G+	c #FEFFFC",
"            G+4+j.G : ! 9 +.O.t+G+              ",
"          (+q + + + + + + + + + !.r+            ",
"        5.+ + ; ( [ 1 : ~ + + + + ; =+          ",
"      a.+ % ( g y G B A l < ^ + + + + (+        ",
"    '++ * 5 _.r.2.,.@.O ` )+C+s+c.+ + ; m+      ",
"    _ + a ~+G+G+8+:.*.!.l+G+G+G+G+E.+ + Z       ",
"  =++ * U.G+G+G+G+{+W W.G+G+G+G+G+G+7 + + 4+    ",
"  {.+ g E+G+G+G+G+G+|.4+G+G+G+G+G+G+|.+ + v.    ",
"  e + *.G+G+G+A+_+G+L.n+G+}.+.G+G+G+H.+ + ,.    ",
"  1 + {.G+G+E+g.+ q..+g+u.3 % =+G+G+z.+ + Z     ",
"  A + G G+G+d++ c @.*+^+D = < <+G+G+>.+ + >.    ",
"  e.+ ! [+G+G+~.j #+}+N.o.Q K.G+G+0+< + + e.    ",
"  m++ # x b+G+o+}+a+h+&+R.`.q+G+c+K % + ~ ;+    ",
"    *.+ @ $.|+3+k+w+x+:+,+V.D.1.4 > + + ;.l+    ",
"    s+; ' G.]+:+f+u+y+p+2+>+S.w.I @ + 5 ++      ",
"      [+; % z 4.A.%+9+1+@+I.h.'.d + : H.v+      ",
"        l+w + ) N ].h.w.8.#.} + + l J.t+        ",
"        G+z+b.5 * t ).U b + % a [./+G+          ",
"      X h u P M p k E E n 2  ./.9.k.x.s.        ",
"    7.6.p.3.f.i.-.^.m.C.0.s i (.F.Z.y.0 !+      ",
"    e+C T.Y.l.%.o H V &.J L <.{ | r f ] /+      ",
"      ..B.d.S m Q.r+X.n.M.j+G+6+R / 6 8 m+      ",
"      $+T v =.;+                   +Y P.        ",
"        e+j+D+                                  "};
